<svg id="Layer_1" data-name="Layer 1" xmlns="http://www.w3.org/2000/svg" viewBox="0 0 1496.51 975.68"><defs><style>.cls-1{fill:#c01f41;}.cls-2{fill:#037b3e;}.cls-3{fill:#173a64;}</style></defs><path class="cls-1" d="M964.77,792.41c1.5.05,3.2.07,5.1.07s3.48,0,4.93-.07l-5.12-12.34Z" transform="translate(-0.59 0.05)"/><path class="cls-1" d="M1019.07,785.45a5.32,5.32,0,0,0,2.25-.92,5,5,0,0,0,1.45-2,7.28,7.28,0,0,0,.58-3,6,6,0,0,0-.67-2.93,4,4,0,0,0-1.74-1.72,7.89,7.89,0,0,0-3.23-.51,18.81,18.81,0,0,0-2.83.19c-.09,1.15-.15,2.47-.17,4l0,3.71v3.42l1.38,0A16.74,16.74,0,0,0,1019.07,785.45Z" transform="translate(-0.59 0.05)"/><path class="cls-1" d="M1020.86,788.86a11.56,11.56,0,0,0-4.35-.66,15.25,15.25,0,0,0-1.84.1v10.91l0,2.84c0,.08,0,.29,0,.63a17.56,17.56,0,0,0,3,.16,6.28,6.28,0,0,0,4.8-2,7.85,7.85,0,0,0,1.83-5.58,8.07,8.07,0,0,0-1-4.19A5.28,5.28,0,0,0,1020.86,788.86Z" transform="translate(-0.59 0.05)"/><path class="cls-1" d="M1286.26,778.06a9,9,0,0,0-4-2.78,23.48,23.48,0,0,0-7.33-.86,29.11,29.11,0,0,0-4.06.31q-.24,3.4-.24,12.8V793c0,4.76.08,7.89.24,9.41a29,29,0,0,0,4.25.33,21.41,21.41,0,0,0,5.65-.67,10.1,10.1,0,0,0,3.18-1.46,10.6,10.6,0,0,0,2.62-2.82,14.73,14.73,0,0,0,2-4.45,21.11,21.11,0,0,0,.7-5.58,19.7,19.7,0,0,0-.7-5.27A11.71,11.71,0,0,0,1286.26,778.06Z" transform="translate(-0.59 0.05)"/><path class="cls-1" d="M1386.45,793.18a31.48,31.48,0,0,0-4.78-2.35l-.64-.26a8.91,8.91,0,0,0-2.55,2.91,7.4,7.4,0,0,0-.85,3.53,6.64,6.64,0,0,0,1.77,4.77,5.77,5.77,0,0,0,4.33,1.85,5.07,5.07,0,0,0,3.82-1.58,5.46,5.46,0,0,0,1.52-3.94,6.06,6.06,0,0,0-.6-2.86A5.74,5.74,0,0,0,1386.45,793.18Z" transform="translate(-0.59 0.05)"/><path class="cls-1" d="M1380.05,782.58a5.68,5.68,0,0,0,1.17,1.12,11.39,11.39,0,0,0,1.77,1l1.72.81,1.29.56a6.46,6.46,0,0,0,2.13-2.34,6.34,6.34,0,0,0,.77-3,5,5,0,0,0-1.41-3.74,5.1,5.1,0,0,0-3.78-1.4,4.56,4.56,0,0,0-3.33,1.24,4.41,4.41,0,0,0-1,4.5A4.63,4.63,0,0,0,1380.05,782.58Z" transform="translate(-0.59 0.05)"/><path class="cls-1" d="M1423.15,793.18a31.48,31.48,0,0,0-4.78-2.35l-.64-.26a8.91,8.91,0,0,0-2.55,2.91,7.4,7.4,0,0,0-.85,3.53,6.64,6.64,0,0,0,1.77,4.77,5.77,5.77,0,0,0,4.33,1.85,5.07,5.07,0,0,0,3.82-1.58,5.46,5.46,0,0,0,1.52-3.94,6.06,6.06,0,0,0-.6-2.86A5.74,5.74,0,0,0,1423.15,793.18Z" transform="translate(-0.59 0.05)"/><path class="cls-1" d="M1416.75,782.58a5.68,5.68,0,0,0,1.17,1.12,11.39,11.39,0,0,0,1.77,1l1.72.81,1.29.56a6.46,6.46,0,0,0,2.13-2.34,6.34,6.34,0,0,0,.77-3,5,5,0,0,0-1.41-3.74,5.1,5.1,0,0,0-3.78-1.4,4.56,4.56,0,0,0-3.33,1.24,4.41,4.41,0,0,0-1,4.5A4.63,4.63,0,0,0,1416.75,782.58Z" transform="translate(-0.59 0.05)"/><path class="cls-1" d="M801,740.67a67.37,67.37,0,0,1-4,41.67c-3.77,8.69-10.32,16-19.17,25.29-1.71,1.8-3.65,3.85-4.45,4.8a168.61,168.61,0,0,0-14.67,20.62H1497.1V740.67Zm54.84,64.21-.31.31a43.32,43.32,0,0,1-4.36.17l-3.85-.08c-3.8,0-6.41-.07-7.85-.07l-8,.15v-1.3a12.15,12.15,0,0,0,2.35-1.38c.09-.67.17-1.76.24-3.26.12-2.74.19-4.74.19-6V782.67c0-.41,0-2-.07-4.66a12.2,12.2,0,0,0-.34-3.3.78.78,0,0,0-.36-.36,13.21,13.21,0,0,0-3.44-.43v-2l5.55.12,3.16,0c2.18,0,4.61,0,7.29-.07l4.86-.12c.57,0,1.74,0,3.49.09a3.85,3.85,0,0,1,.79.14l.17.32-.45,3.44q0,.36-.24,3.45h-1.87a20,20,0,0,0-.22-3.47.85.85,0,0,0-.28-.48,5.88,5.88,0,0,0-1.92-.38,40.89,40.89,0,0,0-4.64-.27c-1.42,0-2.87.06-4.35.17a56.12,56.12,0,0,0-.34,6.87v4.9c1.09.08,2.22.12,3.4.12l4-.09a4.67,4.67,0,0,0,1.52-.17,1,1,0,0,0,.35-.5,12.22,12.22,0,0,0,.33-3h1.94l-.1,5.26.1,5.24h-2.06a8.49,8.49,0,0,0-.36-3.42,1.36,1.36,0,0,0-1-.6,28.77,28.77,0,0,0-4.24-.26c-1.55,0-2.82.05-3.83.14v10.15c0,1.13,0,2.1.07,2.92,1.3.09,2.83.14,4.6.14s3.31-.06,4.77-.17a7.69,7.69,0,0,0,2.69-.48.81.81,0,0,0,.31-.43,24.91,24.91,0,0,0,.91-4.35h2A71,71,0,0,0,855.88,804.88Zm39.71-5.19a11.46,11.46,0,0,1-2.66,3.19,12.45,12.45,0,0,1-3.49,2.16,18.44,18.44,0,0,1-6.89,1.15,22.42,22.42,0,0,1-5.24-.55,24.37,24.37,0,0,1-5-1.89,34.59,34.59,0,0,0,.77-8.3h2a28.11,28.11,0,0,0,.26,4.28,7.53,7.53,0,0,0,3.11,2.61,10.42,10.42,0,0,0,4.81,1.12,9.71,9.71,0,0,0,4.06-.8,5.41,5.41,0,0,0,2.58-2.21,6.42,6.42,0,0,0,.8-3.21,5.58,5.58,0,0,0-.56-2.58,4.12,4.12,0,0,0-1.76-1.72,18.55,18.55,0,0,0-4.21-1.34q-4.33-.92-5.7-1.32a8.25,8.25,0,0,1-3.31-1.79,7.36,7.36,0,0,1-1.88-2.84,10.22,10.22,0,0,1-.62-3.57,11,11,0,0,1,1.13-5,8.9,8.9,0,0,1,3-3.5,12.38,12.38,0,0,1,4.17-1.78,20.86,20.86,0,0,1,4.76-.54,26.3,26.3,0,0,1,4.91.45,16.57,16.57,0,0,1,4.13,1.32l.19.57a28.79,28.79,0,0,0-.49,3.05c-.1,1-.18,2.31-.23,3.94h-2a29.61,29.61,0,0,0-.24-3.92,6,6,0,0,0-2.57-1.87,10,10,0,0,0-4.1-.81,7.15,7.15,0,0,0-5,1.64,5,5,0,0,0-1.78,3.84,5.83,5.83,0,0,0,.53,2.56,3.82,3.82,0,0,0,1.43,1.55,10.69,10.69,0,0,0,2.75,1c.93.2,2.22.43,3.87.72s2.72.49,3.22.6a12.17,12.17,0,0,1,3.13,1.21,6.53,6.53,0,0,1,1.9,1.62,7.69,7.69,0,0,1,1.16,2.33,9.92,9.92,0,0,1,.46,3.14A11.15,11.15,0,0,1,895.59,799.69Zm47-25c0,.13,0,1.88-.09,5.24h-2a26.79,26.79,0,0,0-.31-3.56,2.29,2.29,0,0,0-.31-1,1.64,1.64,0,0,0-.77-.17c-1.3-.13-2.87-.19-4.71-.19H931c0,.56-.07,2.74-.07,6.56v14.33a40.59,40.59,0,0,0,.26,6.22,1.42,1.42,0,0,0,.72.92,11.3,11.3,0,0,0,3.42.39v2q-4.64-.23-7.82-.22-3.4,0-7.83.22v-2a11.6,11.6,0,0,0,3.41-.38,1.45,1.45,0,0,0,.73-1,38,38,0,0,0,.27-6.19V781.53q0-5.87-.08-6.56H920.6c-1.72,0-3.24.06-4.54.17a2.11,2.11,0,0,0-.91.19,1.61,1.61,0,0,0-.29.84,23.06,23.06,0,0,0-.36,3.75h-2q-.1-4.9-.12-5.52c0-.71-.13-1.46-.24-2.28l.21-.24c.75.08,1.55.14,2.39.17q2.07.08,7.92.07h9.67q6,0,8.06-.07c.74,0,1.48-.09,2.23-.17l.24.24C942.73,773.1,942.65,774,942.61,774.68ZM990,805.36l-6.65-.15-8.4.15v-2a14.47,14.47,0,0,0,3.27-.32.74.74,0,0,0,.37-.68,6.39,6.39,0,0,0-.55-2L976,795.14h-12.3l-1,2.87a18.21,18.21,0,0,0-1.2,4.11.88.88,0,0,0,.39.82,10.26,10.26,0,0,0,3.42.43v2l-5.53-.15-5.5.15v-2a19.49,19.49,0,0,0,2.31-.25,1.61,1.61,0,0,0,.63-.34,2.77,2.77,0,0,0,.54-.71c.18-.33.73-1.55,1.64-3.65q.61-1.49,2.39-5.87l6.24-15.4,2.11-5.43h3.4l10.69,25,1.49,3.28,1,2.2a2.11,2.11,0,0,0,.46.62,1.28,1.28,0,0,0,.49.29,6.83,6.83,0,0,0,1.4.17l1,.12Zm40.64-6.26a11.27,11.27,0,0,1-2.72,3.29,13.1,13.1,0,0,1-3.82,2.16,15.39,15.39,0,0,1-5.38.81l-8-.15q-1.93,0-5.07.15v-1.13a13.26,13.26,0,0,0,2.11-1.48c.09-.78.15-1.74.19-2.87q.09-3.5.09-12.71,0-2.46-.12-7.68a28.92,28.92,0,0,0-.26-4.59.85.85,0,0,0-.36-.5,11,11,0,0,0-3.59-.53v-2l1.1,0,3.3.09q1.63,0,4.05,0c1.59,0,2.85,0,3.75,0,2.3-.1,3.8-.14,4.5-.14a17.94,17.94,0,0,1,6.09.81,5.95,5.95,0,0,1,4.13,5.81,7,7,0,0,1-1.14,3.83,8.11,8.11,0,0,1-2.9,2.75,25.58,25.58,0,0,1-4.69,1.61,20.53,20.53,0,0,1,6.06,1.38,6.51,6.51,0,0,1,2.74,2.69,8.17,8.17,0,0,1,1,4.08A8.83,8.83,0,0,1,1030.63,799.1Zm44.28-1.69-.6,4.84c-.12,1.51-.2,2.42-.21,2.72a8.52,8.52,0,0,1-1.39.27c-1,.08-2.48.12-4.52.12l-5.62-.12c-2.64-.07-4.47-.1-5.51-.1q-2.34,0-7.13.22v-1.23a13.82,13.82,0,0,0,1.75-.93,2.38,2.38,0,0,0,.65-.48.62.62,0,0,0,.12-.26c.08-.4.15-1.82.21-4.27s.1-5.39.1-8.82q0-7.56,0-9.33a33.93,33.93,0,0,0-.31-5.14.77.77,0,0,0-.36-.43,10.68,10.68,0,0,0-3.66-.48v-2.11c2,.1,4.34.15,6.94.15q4.35,0,8.25-.15V774a10.85,10.85,0,0,0-3.3.43.82.82,0,0,0-.38.47,19.13,19.13,0,0,0-.23,3c-.07,1.76-.11,4-.11,6.65,0,.29,0,2.59,0,6.92q0,3.42,0,6.78c0,2.24,0,3.6,0,4.08,2.2.1,3.7.14,4.5.14a40.58,40.58,0,0,0,6.34-.43,2.93,2.93,0,0,0,1.17-.31,2.11,2.11,0,0,0,.4-.88c.32-1.22.63-2.6.94-4.17h2C1074.94,797.07,1074.91,797.33,1074.91,797.41Zm31-23.42a23.92,23.92,0,0,0-2.87.18,1.7,1.7,0,0,0-.65.26.82.82,0,0,0-.26.4,5.82,5.82,0,0,0-.24,1.55c0,.42-.06,1.2-.07,2.35q-.1,5.88-.1,6.34v9.64l.07,4.38a13,13,0,0,0,.24,3.2,1,1,0,0,0,.33.52,1.77,1.77,0,0,0,.71.28,20.17,20.17,0,0,0,2.84.16v2.11q-3.9-.15-8.33-.15-3.86,0-6.87.15v-2.11c1.66-.06,2.62-.12,2.88-.17a1.43,1.43,0,0,0,.68-.26.8.8,0,0,0,.23-.38c0-.19.11-.94.19-2.25.12-1.92.19-3.69.19-5.31v-10q0-4.77-.05-6.13a28.4,28.4,0,0,0-.29-3.8,1,1,0,0,0-.22-.48,1.25,1.25,0,0,0-.58-.28,25.24,25.24,0,0,0-3-.2v-2.11q3,.15,6.92.15,4.38,0,8.28-.15Zm41,25.7a11.41,11.41,0,0,1-2.65,3.19,12.59,12.59,0,0,1-3.49,2.16,18.53,18.53,0,0,1-6.9,1.15,22.33,22.33,0,0,1-5.23-.55,24,24,0,0,1-5-1.89,34.7,34.7,0,0,0,.76-8.3h2a29.67,29.67,0,0,0,.27,4.28,7.5,7.5,0,0,0,3.1,2.61,10.45,10.45,0,0,0,4.81,1.12,9.71,9.71,0,0,0,4.06-.8,5.32,5.32,0,0,0,2.58-2.21,6.32,6.32,0,0,0,.8-3.21,5.46,5.46,0,0,0-.56-2.58,4.07,4.07,0,0,0-1.76-1.72,18.37,18.37,0,0,0-4.21-1.34q-4.32-.92-5.69-1.32a8.19,8.19,0,0,1-3.31-1.79,7.25,7.25,0,0,1-1.88-2.84,10,10,0,0,1-.62-3.57,11,11,0,0,1,1.12-5,8.93,8.93,0,0,1,3-3.5,12.33,12.33,0,0,1,4.16-1.78,20.93,20.93,0,0,1,4.76-.54,26.48,26.48,0,0,1,4.92.45,16.62,16.62,0,0,1,4.12,1.32l.2.57a26.43,26.43,0,0,0-.49,3.05c-.11,1-.18,2.31-.23,3.94h-2a29.61,29.61,0,0,0-.24-3.92,6,6,0,0,0-2.57-1.87,10.05,10.05,0,0,0-4.11-.81,7.14,7.14,0,0,0-5,1.64,5.06,5.06,0,0,0-1.79,3.84,6,6,0,0,0,.53,2.56,3.84,3.84,0,0,0,1.44,1.55,10.69,10.69,0,0,0,2.75,1c.92.2,2.21.43,3.86.72s2.73.49,3.22.6a12,12,0,0,1,3.13,1.21,6.57,6.57,0,0,1,1.91,1.62,7.92,7.92,0,0,1,1.16,2.33,10.22,10.22,0,0,1,.45,3.14A11,11,0,0,1,1146.89,799.69Zm55-25.7a26,26,0,0,0-2.78.14,1.94,1.94,0,0,0-.74.28.91.91,0,0,0-.33.51,14.53,14.53,0,0,0-.27,3.33l-.09,4.78v11.2l.09,4.69a16.29,16.29,0,0,0,.24,3.37,1.2,1.2,0,0,0,.35.53,1.67,1.67,0,0,0,.73.29,26.37,26.37,0,0,0,2.8.14v2.11q-3.93-.15-8.28-.15-3.9,0-6.91.15v-2.11a26,26,0,0,0,3-.2,1.22,1.22,0,0,0,.65-.35,4.5,4.5,0,0,0,.28-1.67q.19-2.44.2-7v-5q-1.2-.16-7-.17-5.52,0-7.37,0c-.49,0-1,.06-1.46.12v5c0,2.49,0,4.08.08,4.76.12,2.12.22,3.33.28,3.62a1,1,0,0,0,.23.41,1.31,1.31,0,0,0,.57.27,24.92,24.92,0,0,0,3,.2v2.11q-3-.15-6.92-.15-4.35,0-8.27.15v-2.11a26,26,0,0,0,2.77-.14,1.94,1.94,0,0,0,.74-.28,1,1,0,0,0,.34-.51,14.48,14.48,0,0,0,.26-3.33l.1-4.76V783l-.1-4.71a14.65,14.65,0,0,0-.26-3.37,1,1,0,0,0-.33-.52,1.89,1.89,0,0,0-.73-.29A22.39,22.39,0,0,0,1164,774v-2.11q3.92.15,8.27.15,3.9,0,6.92-.15V774a26.25,26.25,0,0,0-3,.2,1.09,1.09,0,0,0-.64.35,4.2,4.2,0,0,0-.29,1.67c-.14,1.63-.22,4-.22,7V786c1.15.1,3.56.14,7.23.14,4.63,0,7.48,0,8.57-.14v-2.75c0-2.47,0-4.06,0-4.76-.13-2.12-.23-3.32-.29-3.59a.88.88,0,0,0-.23-.44,1.16,1.16,0,0,0-.57-.27,24.86,24.86,0,0,0-3-.2v-2.11q3,.15,6.91.15,4.35,0,8.28-.15Zm41.18,30.89-.31.31a43.09,43.09,0,0,1-4.35.17l-3.85-.08c-3.8,0-6.42-.07-7.85-.07l-8,.15v-1.3a11.75,11.75,0,0,0,2.34-1.38c.1-.67.18-1.76.24-3.26.13-2.74.19-4.74.19-6V782.67c0-.41,0-2-.07-4.66a12.85,12.85,0,0,0-.33-3.3.78.78,0,0,0-.36-.36,13.23,13.23,0,0,0-3.45-.43v-2l5.55.12,3.16,0c2.19,0,4.62,0,7.3-.07l4.86-.12c.57,0,1.73,0,3.49.09a4,4,0,0,1,.79.14l.17.32-.46,3.44q0,.36-.24,3.45h-1.86a22.44,22.44,0,0,0-.22-3.47.81.81,0,0,0-.29-.48,5.72,5.72,0,0,0-1.91-.38,41,41,0,0,0-4.64-.27c-1.42,0-2.87.06-4.36.17a58.5,58.5,0,0,0-.33,6.87v4.9c1.08.08,2.22.12,3.4.12l4-.09a4.72,4.72,0,0,0,1.52-.17,1,1,0,0,0,.34-.5,12.11,12.11,0,0,0,.34-3h1.94l-.1,5.26.1,5.24h-2.06a8.68,8.68,0,0,0-.36-3.42,1.36,1.36,0,0,0-1-.6,28.53,28.53,0,0,0-4.23-.26c-1.55,0-2.83.05-3.83.14v10.15c0,1.13,0,2.1.07,2.92,1.29.09,2.82.14,4.59.14s3.32-.06,4.78-.17a7.75,7.75,0,0,0,2.69-.48.86.86,0,0,0,.31-.43,24.91,24.91,0,0,0,.91-4.35h2A73.55,73.55,0,0,0,1243.09,804.88Zm51.78-10.08a16.86,16.86,0,0,1-4.6,6,18.71,18.71,0,0,1-6.35,3.48,28.08,28.08,0,0,1-8.26,1.07l-7.1-.15-7.25.15v-1.15c.12-.08.35-.21.67-.39a15.87,15.87,0,0,0,1.67-1.05c.18-2.14.26-5.6.26-10.41v-3.92c0-2.11,0-5.19-.12-9.26a24.38,24.38,0,0,0-.31-4.31.76.76,0,0,0-.19-.33,1.29,1.29,0,0,0-.6-.29c-.27-.06-1.27-.21-3-.43v-1.94l8.68.15c1,0,3,0,5.77-.12,2,0,3.68-.07,4.91-.07a36,36,0,0,1,6.78.51,13.75,13.75,0,0,1,4.44,1.65,12.76,12.76,0,0,1,3.19,2.69,11.35,11.35,0,0,1,2,3.35,18.76,18.76,0,0,1,1.13,6.61A19,19,0,0,1,1294.87,794.8Zm61.6,10.56c-3.47-.16-6.27-.24-8.43-.24q-2.19,0-10.14.24v-1.94l4.52-.48a1.76,1.76,0,0,0,1-.42,2.38,2.38,0,0,0,.51-1.3,68.05,68.05,0,0,0,.31-8.31v-5.74c0-2,0-4.11-.07-6.41l-.08-2.06a2.06,2.06,0,0,0-.14-1,.41.41,0,0,0-.36-.21,5.33,5.33,0,0,0-1.05.4q-4.66,2.05-5.93,2.73l-.29-.17q-.11-.48-.24-1.53c-.08-.52-.17-1-.26-1.46l0-.17c2.86-.82,5.12-1.52,6.81-2.08s4.31-1.5,7.88-2.84l.53.35q0,.39-.15,2.25c-.09,1.25-.14,2-.14,2.4q-.08,2.07-.19,10.64v3.54c0,3.47,0,5.87,0,7.21a14.49,14.49,0,0,0,.31,3.59,1,1,0,0,0,.48.47,11.31,11.31,0,0,0,3.44.43,12.89,12.89,0,0,1,1.56.15Zm36.25-4.07a10.67,10.67,0,0,1-4.78,4,12.61,12.61,0,0,1-5.07.93,10.83,10.83,0,0,1-4.62-.86,9,9,0,0,1-2.45-1.7,8.24,8.24,0,0,1-1.84-2.56,8.14,8.14,0,0,1-.68-3.51,8.78,8.78,0,0,1,.45-2.9,6.9,6.9,0,0,1,1.29-2.26,8.09,8.09,0,0,1,1.73-1.54c.12-.08.86-.49,2.22-1.22a13.51,13.51,0,0,1-2.84-2,6.77,6.77,0,0,1-1.43-2.34,8.75,8.75,0,0,1-.54-3.13,8.58,8.58,0,0,1,1.38-4.84,8.86,8.86,0,0,1,3.56-3.18,12.17,12.17,0,0,1,5.47-1.09,8.84,8.84,0,0,1,6.2,2,6.56,6.56,0,0,1,2.2,5,6.81,6.81,0,0,1-.64,2.92,8.26,8.26,0,0,1-1.78,2.44,15.18,15.18,0,0,1-2.15,1.58,14.26,14.26,0,0,1,3.1,1.68,7,7,0,0,1,1.68,1.82,7.42,7.42,0,0,1,.92,2.2,10.78,10.78,0,0,1,.3,2.6A10.89,10.89,0,0,1,1392.72,801.29Zm36.7,0a10.67,10.67,0,0,1-4.78,4,12.61,12.61,0,0,1-5.07.93,10.83,10.83,0,0,1-4.62-.86,9,9,0,0,1-2.45-1.7,8.24,8.24,0,0,1-1.84-2.56,8.14,8.14,0,0,1-.68-3.51,8.78,8.78,0,0,1,.45-2.9,6.9,6.9,0,0,1,1.29-2.26,8.09,8.09,0,0,1,1.73-1.54c.12-.08.86-.49,2.22-1.22a13.51,13.51,0,0,1-2.84-2,6.77,6.77,0,0,1-1.43-2.34,8.75,8.75,0,0,1-.54-3.13,8.58,8.58,0,0,1,1.38-4.84,8.86,8.86,0,0,1,3.56-3.18,12.17,12.17,0,0,1,5.47-1.09,8.84,8.84,0,0,1,6.2,2,6.56,6.56,0,0,1,2.2,5,6.67,6.67,0,0,1-.64,2.92,8.26,8.26,0,0,1-1.78,2.44,15.18,15.18,0,0,1-2.15,1.58,14.26,14.26,0,0,1,3.1,1.68,7,7,0,0,1,1.68,1.82,7.42,7.42,0,0,1,.92,2.2,10.78,10.78,0,0,1,.3,2.6A10.89,10.89,0,0,1,1429.42,801.29Zm38.28-6a16.53,16.53,0,0,1-1.42,5.06,12,12,0,0,1-2.32,3.35,8.75,8.75,0,0,1-2.92,1.88,10.88,10.88,0,0,1-3.92.63,10.29,10.29,0,0,1-4.77-1,8.4,8.4,0,0,1-3.31-3.07,13.25,13.25,0,0,1-1.75-5.06,45.22,45.22,0,0,1-.46-6.81,45.67,45.67,0,0,1,.59-7.61,13.45,13.45,0,0,1,1.39-4.09,11.34,11.34,0,0,1,2.3-3,8.91,8.91,0,0,1,3-1.79,10.57,10.57,0,0,1,3.68-.62,9.77,9.77,0,0,1,6.14,1.71,9.58,9.58,0,0,1,3.19,4.85,30.85,30.85,0,0,1,1,8.75A53.27,53.27,0,0,1,1467.7,795.27Z" transform="translate(-0.59 0.05)"/><path class="cls-1" d="M1460.67,778.19a4.55,4.55,0,0,0-1.46-2,3.36,3.36,0,0,0-2-.62,3.63,3.63,0,0,0-2.28.77,5,5,0,0,0-1.5,2.62,29.88,29.88,0,0,0-.77,7.87,77.12,77.12,0,0,0,.55,9.72c.37,2.89,1,4.8,1.76,5.74a3.58,3.58,0,0,0,2.79,1.41,3.72,3.72,0,0,0,3.2-2c.85-1.33,1.27-4.54,1.27-9.65a80.67,80.67,0,0,0-.62-10A14.91,14.91,0,0,0,1460.67,778.19Z" transform="translate(-0.59 0.05)"/><path class="cls-2" d="M994.54,394.31l-2.2,4.83a48,48,0,0,1-10.75,4.33,50.72,50.72,0,0,1-11.89,1.18,46.84,46.84,0,0,1-17.94-3.21,32.13,32.13,0,0,1-16.94-16.08A38.22,38.22,0,0,1,931.33,369q0-15.07,10.31-24.62t29.11-9.54a64.6,64.6,0,0,1,11.61.95,78.54,78.54,0,0,1,11.94,3.4l.24.62a29.63,29.63,0,0,0-1.2,5.65q-.72,5.42-.91,10H988.7c-.07-3.51-.22-6.31-.48-8.42a21.14,21.14,0,0,0-7.2-5,27,27,0,0,0-10.22-1.65q-11.24,0-18,7.1t-6.75,19.84a36.23,36.23,0,0,0,2.28,13.44,27.25,27.25,0,0,0,6,9.5,26.26,26.26,0,0,0,7.61,5.48,31.25,31.25,0,0,0,12.63,2.3,37.85,37.85,0,0,0,9.24-1.1,43.54,43.54,0,0,0,9.47-3.78Z" transform="translate(-0.59 0.05)"/><path class="cls-2" d="M1060.67,336v4.21a43.59,43.59,0,0,0-5.74.36,3.3,3.3,0,0,0-1.3.52,1.57,1.57,0,0,0-.52.79,11.25,11.25,0,0,0-.48,3.11c-.06.83-.11,2.39-.14,4.69q-.2,11.78-.2,12.68v19.29l.15,8.75a26.3,26.3,0,0,0,.48,6.42,1.91,1.91,0,0,0,.64,1,3.72,3.72,0,0,0,1.44.58,44.66,44.66,0,0,0,5.67.31V403q-7.8-.29-16.65-.29-7.71,0-13.74.29v-4.21c3.32-.13,5.23-.24,5.75-.34a2.81,2.81,0,0,0,1.36-.52,1.43,1.43,0,0,0,.45-.77,43.9,43.9,0,0,0,.39-4.5q.38-5.73.38-10.62V362q0-9.52-.1-12.25a61.94,61.94,0,0,0-.57-7.61,2.26,2.26,0,0,0-.45-1,2.55,2.55,0,0,0-1.15-.55,50.48,50.48,0,0,0-6.06-.4V336q6,.29,13.83.28Q1052.87,336.31,1060.67,336Z" transform="translate(-0.59 0.05)"/><path class="cls-2" d="M1111.29,403v-3.92q5.74-.19,6.82-.77a3,3,0,0,0,1.46-1.91q.53-2.06.52-12.4V355.31q0-11.73-.14-13.11h-6.84q-5.17,0-9.1.33a4.14,4.14,0,0,0-1.81.39,3.2,3.2,0,0,0-.58,1.67,48.6,48.6,0,0,0-.72,7.51h-4q-.2-9.81-.24-11.05c-.09-1.4-.25-2.92-.48-4.55l.44-.47c1.49.16,3.09.27,4.78.33q4.11.15,15.84.14h19.33q12.06,0,16.13-.14c1.46-.06,3-.17,4.45-.33l.48.47a49.29,49.29,0,0,0-.53,5.12c0,.26-.1,3.75-.19,10.48h-4a55.6,55.6,0,0,0-.63-7.13,4.62,4.62,0,0,0-.62-2.05,3.36,3.36,0,0,0-1.53-.34c-2.61-.25-5.76-.38-9.43-.38h-6.84q-.14,1.68-.14,13.11V384q0,10.33.52,12.44a2.9,2.9,0,0,0,1.44,1.85q1.1.6,6.84.79V403q-9.28-.44-15.64-.43Q1120.15,402.54,1111.29,403Z" transform="translate(-0.59 0.05)"/><path class="cls-2" d="M1227.39,367.8l6-9.76q1.53-2.64,9.09-16,2.64-4.61,3.31-6h7.51v2.15q-5.79,7.8-12.49,18.33t-8.28,13.54a15.75,15.75,0,0,0-1.39,3.59,16,16,0,0,0-.28,3.59v8.08a88.27,88.27,0,0,0,.31,8.86,8.91,8.91,0,0,0,.74,3.35,2.63,2.63,0,0,0,1.43.86,39.25,39.25,0,0,0,6.32.38V403q-9.14-.29-16.51-.29-7.17,0-14.55.29v-4.21a51.51,51.51,0,0,0,6.39-.43,2.23,2.23,0,0,0,1.29-.72,7.12,7.12,0,0,0,.51-2.87q.29-5.46.28-9.28v-9.1q0-1.1-1.81-4.54-4.5-8.24-9.62-16.22a77.76,77.76,0,0,0-7.75-10.43,17,17,0,0,0-3.4-3.11,15.67,15.67,0,0,0-4.21-.29v-3.59l10.14-2c1.72-.38,3.5-.81,5.31-1.29a21.87,21.87,0,0,1,4.26,2.89,31.41,31.41,0,0,1,3.69,4.76,114.26,114.26,0,0,1,6.94,11.92Q1226.25,365.31,1227.39,367.8Z" transform="translate(-0.59 0.05)"/><path class="cls-2" d="M1332,370.29a40.27,40.27,0,0,1,2.65-15.27,31.17,31.17,0,0,1,18.31-17.61,49.66,49.66,0,0,1,16.17-2.53,48.14,48.14,0,0,1,15.79,2.44,29.89,29.89,0,0,1,15.46,12.58,31.44,31.44,0,0,1,3.18,8.09,40.77,40.77,0,0,1,1.08,9.71,44.23,44.23,0,0,1-3.11,16.7,30.47,30.47,0,0,1-6.73,10.2,31.56,31.56,0,0,1-10.07,6.84,46,46,0,0,1-17.71,3.21q-10.76,0-18.49-3.9a28.7,28.7,0,0,1-12.13-11.51Q1332,381.62,1332,370.29Zm14.74-2.83q0,11.16,3.06,18.45t7.85,10.31a20.73,20.73,0,0,0,11.29,3,20.51,20.51,0,0,0,10.79-2.87c3.17-1.92,5.66-5.15,7.46-9.72a45.05,45.05,0,0,0,2.71-16.6,48.24,48.24,0,0,0-1.46-12.25,29.29,29.29,0,0,0-4.19-9.45,19.3,19.3,0,0,0-6.43-6,20.32,20.32,0,0,0-9.84-2.06,20.94,20.94,0,0,0-11.89,3.28,18.52,18.52,0,0,0-7.13,9.69A43.09,43.09,0,0,0,1346.72,367.46Z" transform="translate(-0.59 0.05)"/><path class="cls-2" d="M1484,379.71h-3.83q-.15-6-.81-7.22a2.42,2.42,0,0,0-1.73-.91,72.29,72.29,0,0,0-11.19-.62c-.74,0-2,0-3.83.05v5.31q0,11.34.26,15.91c.18,3,.42,4.82.74,5.33a2.26,2.26,0,0,0,1.2.84,55.19,55.19,0,0,0,7.51.79V403l-18.76-.33q-4.07,0-12.87.33v-4a32.22,32.22,0,0,0,6.37-.43,1.47,1.47,0,0,0,.71-.53,5.88,5.88,0,0,0,.67-2.49q.15-1.1.39-6.91t.24-8.35V360.48q0-.68-.44-13.4a23.83,23.83,0,0,0-.52-5.22,1.57,1.57,0,0,0-.46-.79,3.6,3.6,0,0,0-1.34-.5,50.53,50.53,0,0,0-5.62-.52v-4l17,.28,23-.38a82.45,82.45,0,0,1,9.13.48l.44.67a68,68,0,0,0-.91,6.94q-.39,4.2-.43,7.37H1485c0-.77-.08-2.49-.24-5.17a10.72,10.72,0,0,0-.28-2.54.94.94,0,0,0-.44-.48,12.76,12.76,0,0,0-4-1.12,42.71,42.71,0,0,0-7.35-.55c-.54,0-2.05.05-4.52.14s-4.15.18-5.05.24q-.52,4.79-.52,17.28v6.7c4.08.12,6.84.19,8.28.19,4.14,0,6.76-.19,7.84-.58a1.46,1.46,0,0,0,.91-1.1,22.27,22.27,0,0,0,.53-5.45h4.16Q1484,367.08,1484,379.71Z" transform="translate(-0.59 0.05)"/><path class="cls-3" d="M1294.35,700.09l-.21-9.51c7.86-3.67,14.68-6.78,18.67-12.77a161.24,161.24,0,0,0,2-26.51c-.12-22.56.07-38.93.07-49.14l.07-88.29c0-3.4.39-16.53,0-38.67q-.59-22.2-2.75-27.12a6.49,6.49,0,0,0-2.94-2.94q-5.31-2.37-28.3-3.54V425.5l45.38,1c9,.14,17.91.28,26.17.28,17.94,0,37.75-.23,59.75-.62l40.26-1c4.72,0,14.18.24,28.59.76a58.59,58.59,0,0,1,9.58,1.46l1.38,2.55-2.42,27.91c-.13,2-1.39,12.26-2.57,29.15l-15-.06c-1.18-15.2-1.93-26-3-29.5-.84-2.78-3.81-4-4.86-4.79-1.9-.73-7.5-1.62-16.27-2.54-13-1.44-26-.65-38.42-.65-11.66,0-25.44-.08-37.62.83-.07,14.78.07,32.45.07,55.25l.07,41.43c8.91.66,17.58.69,27.28.69,3,0,14-.09,32.69-.62,7.07-.13,11-1.44,12.29-2.22a7.37,7.37,0,0,0,2.85-4.13q2.37-7.47,2.75-25h15.92l-.79,43.22,1.12,44h-16.1c.13-15.19-1.93-24.22-4-27.76a12.55,12.55,0,0,0-8.49-6.16c-9-1.44-20.67-1.27-34.81-1.27-12.71,0-22.57.05-30.82.84v83c0,9.31-.46,17.61-.07,24.3,10.61.78,23.22,1.17,37.76,1.17,14.14,0,27.25-1,39.24-1.94s16.55-1.86,19.63-2.87c3.31-1.08,3.78-3.55,4.56-5.39,2.36-6.29,4.74-17.07,7.36-34.63l16.68-.34q-4.32,38.91-4.32,64.06l-2.37,3.39c-8.38.92-20.35,1.25-35.81,1.25H1423c-31.18-.39-52.55-.9-64.33-.9C1355.47,699.6,1335,699.3,1294.35,700.09Z" transform="translate(-0.59 0.05)"/><path class="cls-3" d="M916.43,700.34c19.65-.52,38.83-.73,57.91-.73,20.23,0,40.9.39,66,1.18V683.45c-14.59-.27-21.26-.79-24-1.58a10.8,10.8,0,0,1-5.91-3.55c-1.18-1.58-2.2-6.17-3-13.8s-1.29-19.77-1.29-36.46V594.75q0-10.25,1.19-14.78a62.83,62.83,0,0,1,5.71-14.78c4.34-8.28,15.41-27.06,34.1-55.78,16.12-24.77,30.51-46.48,44.22-65.59q11.14,1.08,14,2.93a6.12,6.12,0,0,1,3,3.55q1.77,5.31,2.56,42.3.39,14.56.39,76.75,0,42.3-.79,72.5T1108.63,677a4.7,4.7,0,0,1-1,2.17q-1.19,1.58-5.31,3.93a127.49,127.49,0,0,1-14.37,7.67v10c26.24-1.18,45.91-.86,58.77-.86,8.53,0,23.31-.31,45.13-.12,28.47.24,44.13.12,46.49.12,16.79,0,28.72-.29,36.75-.4,3.85-.06,8.45-.11,12.48-.14.13-2.49.24-11.62,1.29-24.09l2.52-39.84c0-.65.2-2.82.59-6.49h-16.33c-2.49,12.86-5.35,24.3-7.24,34.32-.73,3.87-2.17,6.83-3.22,7.74s-2.82,1.23-8.2,2q-22.24,3.54-52.14,3.54-9.85,0-37-1.18-.19-5.91-.29-33.56t-.3-55.78q-.19-53.33-.2-56.87,0-33.06.89-54.7t1.87-24.3a6.85,6.85,0,0,1,3.15-3.84q4.9-2.55,27.15-3.54V425.5q-32.07,1.19-67.88,1.18c-12,0-23.23.29-33.74.41h0l-23.33-.26h0l-8.6.2c-1.85,3.81-5.39,10-12.61,22.66-20.77,36.79-34.12,58.32-38.32,65.55l-24,40.68q-4.73-10.24-27.79-55a468.39,468.39,0,0,0-28.58-49.07q-9.66-14.39-15.17-19.61T902.6,420.32q-11.24,3-21.88,5.32l-41.79,8.28V448.7q14.79,0,17.35,1.19,4.14,2.16,14,12.81,14.79,16.16,31.93,43,21.09,32.93,39.62,66.82,7.48,14.19,7.49,18.72v37.45q0,15.78-1.18,38.24-.6,9.86-2.08,11.83c-1,1.31-2.75,2.3-5.32,2.95-2.2.57-9,1.66-20.33,1.51h0c-10.46,0-22-4.93-26.29-7.89a119.72,119.72,0,0,1-20.66-17.92C864,647.26,847.12,626.08,820.62,595l-57.21-67c-16.57-19.35-29.12-33.64-37.49-44.11L776.2,436c33.48-30.16,54.26-51.24,64.82-60.1a391.19,391.19,0,0,0,30-27.66c1.47-1.5,3.88-4.52,6.18-7.52h.38c1.66-2.91,3.85-5.46,5.72-8.16l.08-.11h0a26,26,0,0,0,2.32-4c2.85-6.33,4.79-11.36,5.36-16.47.66-5.92.66-11.76-.07-15.59-3-15.85-9.21-27.18-21-39.54-10-11.14-24.33-19.56-45.44-25.16-17.64-4.69-40.4-2.23-57.36-.68-6.59.6-13.93,1.66-21.2,2.21-6.88.53-14,.56-21.37.56A194.38,194.38,0,0,1,669,225.4l-2.25-.63c-84.13-22.94-113.46-37.73-117-39.14-3.93-1.56-6.83-3.28-8.3-4.74a13.75,13.75,0,0,1-2.57-4.17c-.45-1.58-.34-2.42-.36-6.64-.27-43.71.77-94,.79-94.49.5-18.91-1.87-37.42-17.3-52.57C506.31,5.67,488.63,3.08,469.72,2.71L329.09,0h-1.41c-38,0-66.81,13.71-70.92,68.14L244.31,376.74c-.1,1.38-.3,3-.56,4.59-2.41,0-5.17-.1-8.21-.27-40.2-2.29-99.68-4-103.24-4-6.91-.11-25.22-1.06-26-1.06-28.32.91-81.2-12.62-98.63,17.19-5.4,9.24-10.46,20.72-4.25,39.5,7,21,26.94,32.51,57.34,65.41,15.63,15.82,33.37,34.75,41,44.92a15,15,0,0,1,2.55,5.26c.81,3.12,1.74,6.94,2.5,10.09,7.41,30.62,21.32,76.85,55,102.95,25.89,20.05,56.79,32.63,63.45,35.49,9.72,4.16,22.81,8.13,36.29,8.13,24.86,0,42.26-14.21,53.93-37.67C319.35,659.6,331,644,349.38,640a50.37,50.37,0,0,1,8.77-1c11.13,0,16.75,7,31.68,25.35,1.57,2,3.66,4.75,5.3,6.79,2.45,3,12.3,17.29,40.05,69.42,1.25,2.34,2.11,3.64,2.71,4.72,6.68,12.15,13.05,21.75,33.21,42,10.55,10.75,22.72,26.9,28.8,37.56,2.92,5.1,4.6,11,6.08,16.23.7,2.44,1.41,5,2.32,7.67.8,2.4,20.09,59.42,66.86,86.71l3.41,2.33c20.71,11.87,25,13.11,57.08,25.38A187.9,187.9,0,0,0,663,970.92c17.92,3.75,50.82,9.63,64.16-2.86,9-8.42,17.1-10.86,18-35,.59-16-11.06-43.17-15.42-57.33-3.82-12.87-7.58-31.92-6.46-38.76.3-1.82,2.51-7.11,9.55-19a199,199,0,0,1,17.62-24.81c4.64-5.55,16.31-16.34,19.11-22.79A36.6,36.6,0,0,0,756.41,725c-15.6-10.05-32.07-3.92-38-.53-1.87,1.07-4.3,3.56-7.59,6.1-5.65,6.39-11.69,12.11-15.56,16.73-14.38,17.21-38.36,52.75-42.87,79s8.74,70,8.74,70c-32.44-12.41-30.75-11.85-50.49-23.13s-33-40.91-35-46.83-5.08-20.87-14.1-36.67-24.83-37.8-39.78-53S503.44,715.69,500.34,710s-33.29-63.75-49.93-84.34c-15.44-19.1-41.55-58.58-93.64-58.58a108.26,108.26,0,0,0-12.71.76c-60.64,7-90.83,62-90.83,62s-31.59-13.54-51.62-29-24.54-62.9-32.44-83.21-57.54-70.52-57.54-70.52,80.11,2.53,119.88,4.79c4.62.26,8.83.39,12.69.39,29.4,0,38.58-7.48,53-20.7,16.36-14.95,18-51.34,18-51.34L327.71,71,468.33,73.7s-1.37,51.36-1.1,96.82,23.35,63.17,41.75,75.25,117,41.48,139,48.07a275.8,275.8,0,0,0,76.58,11c9.92,0,20.18-.67,30.73-1.12,4.31-.18,10.87-.5,14.45-.66,23.11-1.05,29.66,13.18,33.11,20.52,4.17,8.86,3.68,26,1.66,30.48-4.25,9.37-12,18.72-20.88,27.42-5.22,5.09-13,14.41-25,26.79l-37.94,37.5c-25.93,25.46-38.39,35.7-64.45,62.32a3.59,3.59,0,0,1-4.34.63l-.07,0a3.51,3.51,0,0,1-1.8-3.06l.07-69c0-31.73,1-54.26,3.14-65.6q1.57-7.59,5.5-9.94,6.53-3.39,36.88-4.19v-23q-42.65,1.56-90.24,1.57-42.63,0-75.85-1.57v23q29,1.58,34.79,3.14a11.61,11.61,0,0,1,5.36,2.88q1.7,1.83,3,7.58c1.21,6.46,2,20.62,2.35,40.5l.06,81.07V587c0,11.5.29,30.2-.57,56-.36,10.64-1.18,17.57-2,20.79A17.93,17.93,0,0,1,569.4,671a11.15,11.15,0,0,1-4.84,3.4q-7.84,2.36-35,3.67v22.75q33.21-1.57,75.59-1.57,47.6,0,90.5,1.57V678q-29-1-34.27-2.88t-7.06-4.71q-3.13-5-3.4-25.63L650.08,593V534.18a25.08,25.08,0,0,1,.4-6,4.43,4.43,0,0,1,1.44-2.42,7.13,7.13,0,0,1,3.84-1.08c1.74,0,3.42,1.64,5.57,3.33a135.91,135.91,0,0,1,15.19,14.83c2.44,2.44,21.84,25.94,60.38,71.45l50.46,61c9.24,11,14.67,17.84,21.15,24.84,13.08-.69,28.32-.42,42.45-.42,17.84,0,38.81.12,63.54.58ZM244.3,377.08v.43l0-.47Z" transform="translate(-0.59 0.05)"/></svg>